<svg id="Layer_1" data-name="Layer 1" xmlns="http://www.w3.org/2000/svg" viewBox="0 0 585.55 663.65"><defs><style>.cls-1{fill:#754c28;stroke-width:2px;}.cls-1,.cls-11,.cls-13,.cls-2,.cls-3{stroke:#231f20;}.cls-2{fill:#74b64a;}.cls-2,.cls-3{stroke-width:3px;}.cls-3{fill:#00b0d8;}.cls-4{fill:#8a5d3b;}.cls-5{fill:#231f20;}.cls-6{fill:#00a551;}.cls-7{fill:#fff100;}.cls-8{fill:#2b388f;}.cls-9{fill:#1b75bb;}.cls-10{fill:#25a9e0;}.cls-11,.cls-13{fill:#ec1c24;}.cls-12{fill:#b2b4b7;}.cls-13{stroke-width:0.75px;}.cls-14{fill:#adafb1;}</style></defs><title>monster</title><path class="cls-1" d="M791.84,326.75l68.73-38.82a48.58,48.58,0,0,1,66.18,18.39h0a48.59,48.59,0,0,1-18.4,66.19l-68.73,38.82" transform="translate(-393.18 -51.87)"/><path class="cls-1" d="M485.39,398.41l-67.66-40.66a48.58,48.58,0,0,1-16.61-66.66h0a48.6,48.6,0,0,1,66.66-16.61l67.65,40.67" transform="translate(-393.18 -51.87)"/><path class="cls-2" d="M821.5,289.63c61.44-53.19,153.67-54.49,153.67-54.49s-62-62.47-138.6-53.19" transform="translate(-393.18 -51.87)"/><path class="cls-3" d="M494.41,183.63c-1.12-70-53.28-130.08-53.28-130.08s75.77,4,113.82,58.53" transform="translate(-393.18 -51.87)"/><path class="cls-4" d="M666.08,616.18c-32,0-30.64,30.64-30.64,50.18,0,43.77-3.37,49.15-25.59,49.15-28.62,0-28.28-9.42-28.28-30.3,0-10.1-4.72-39.06-10.79-61.28s-24.91-41.76-45.11-62-23.41-68.86-26.11-71.55-9,3.62-14.64,9.26c-2.69-2.69-1.69-16.5,5.05-27.62s8.67-36.61,9.42-43.77c-3.2-3.2-8.83-.93-15.48,1.69-4.71-4.72,8.42-23.24,6.06-25.59s-5-1.06-12.12.67c0-5.39,6.06-26.26,6.06-31.65s-3.7-9.43-10.1-13.47c0-7.41,10.87-32.41,19.53-47.14-6.06,0-17.93,18.6-28.28,20.87,0-8.08,10.35-29.63,10.35-36.7s-3.79-9.77-10.61-14.31c0-23,31.23-49.33,31.23-49.33s-13.55,3.11-21.54,0c4.38-4.38,6.4-16.5,6.4-16.5s-8.93,1.51-14.48,7.07c0-7.41,11.78-23.91,15.48-27.61s15.94-40,31.65-54.55C555.31,103,578.63,94.61,666.08,94.61c10.77,0,36-10.78,36-10.78l-3.36,11.44s35.68,2.7,51.17-12.79c0,12.28-4.71,18.18-4.71,18.18s35.69,2.69,53.2-6.06c0,14.81-24.24,22.22-24.24,22.22s29.29,9.77,44.45,24.92,28,50.85,31.65,54.55,15.48,20.2,15.48,27.61c-5.55-5.56-14.48-7.07-14.48-7.07s2,12.12,6.4,16.5c-8,3.11-21.54,0-21.54,0s31.23,26.35,31.23,49.33c-6.82,4.54-10.61,7.24-10.61,14.31s10.35,28.62,10.35,36.7c-10.35-2.27-22.22-20.87-28.28-20.87,8.67,14.73,19.53,39.73,19.53,47.14-6.4,4-10.1,8.08-10.1,13.47s6.06,26.26,6.06,31.65c-7.12-1.73-9.76-3-12.12-.67S853,425.26,848.25,430c-6.65-2.62-12.28-4.89-15.48-1.69.75,7.16,2.68,32.66,9.42,43.77s7.74,24.93,5,27.62c-5.64-5.64-11.94-12-14.64-9.26s-5.9,51.35-26.11,71.55-39,39.73-45.11,62-10.78,51.18-10.78,61.28c0,20.88.33,30.3-28.29,30.3-22.22,0-25.59-5.38-25.59-49.15C696.72,646.82,698.07,616.18,666.08,616.18Z" transform="translate(-393.18 -51.87)"/><ellipse class="cls-5" cx="272.91" cy="333.33" rx="81.51" ry="89.2"/><path class="cls-6" d="M666.07,402.11c-29.79,0-49.91,10.1-65.56,25.47,13.78,20.43,34.58,40.65,65.57,40.65s48-16.53,65.57-40.64C716,412.21,695.87,402.11,666.07,402.11Z" transform="translate(-393.18 -51.87)"/><path class="cls-7" d="M665.51,300.36a75.21,75.21,0,0,1,24.29,4.35c0,36.91-18.46,108.17-23.58,108.17s-23.58-71.26-23.58-108.17A61.89,61.89,0,0,1,665.51,300.36Z" transform="translate(-393.18 -51.87)"/><circle class="cls-5" cx="250.03" cy="119.17" r="55.34"/><circle class="cls-8" cx="250.03" cy="119.17" r="37.18"/><circle class="cls-9" cx="250.03" cy="119.17" r="26.05"/><path class="cls-10" d="M663.74,171a20.54,20.54,0,1,0-20.54,20.54A20.55,20.55,0,0,0,663.74,171Z" transform="translate(-393.18 -51.87)"/><path class="cls-7" d="M659.29,144.38l1.29.77c3.53,2.11,7.94.37,10.19-2.57L678.18,132a52.64,52.64,0,0,0-15.5-9.66l-5.95,11.83C655.22,137.57,655.78,142.28,659.29,144.38Zm12,12.11.7,1.33c1.91,3.63,6.59,4.45,10,3.11l11.37-5a52.07,52.07,0,0,0-8.21-16.23l-10.78,6.72C671.39,148.55,669.41,152.86,671.32,156.49Zm-44-35.45a52.07,52.07,0,0,0-16.23,8.56l7.21,11.56c2.09,3.05,6.4,5,10,3.12l1.33-.7c3.64-1.91,4.44-6.58,3.11-10Zm-11.1,35.27L617,155c2.11-3.52.37-7.93-2.56-10.19L603.33,137a52.24,52.24,0,0,0-9.27,15.81l12,6C609.45,160.39,614.15,159.83,616.26,156.31Zm-4.08,16.31v-1.51c0-4.11-3.76-7-7.44-7.43l-13.27-1a53.19,53.19,0,0,0-.72,8.33,52.54,52.54,0,0,0,1,10l13-1C608.42,179.61,612.18,176.72,612.18,172.62Zm82.76-9.83-12.2.89c-3.68.43-7.43,3.33-7.43,7.43v1.5c0,4.11,3.75,7,7.43,7.43l12,.87a49.84,49.84,0,0,0,.25-18.12Zm-78.77,24.44-.71-1.33c-1.91-3.64-6.58-4.44-10-3.11L593.59,188a52.27,52.27,0,0,0,8.77,16L613,197.26C616.1,195.17,618.07,190.86,616.17,187.23Zm18.4-67.87,1,13.5c.44,3.68,3.33,7.43,7.43,7.43h1.5c4.11,0,7-3.75,7.43-7.43l1-13.34a49.94,49.94,0,0,0-18.33-.16Zm36.66,68.05-.78,1.29c-2.11,3.53-.37,7.93,2.57,10.19l9.56,6.72A52.45,52.45,0,0,0,692,190.17l-10.59-5.32C678,183.34,673.33,183.89,671.23,187.41Zm-12.12,12-1.33.7c-3.63,1.91-4.44,6.59-3.11,10l4.69,10.76a52,52,0,0,0,15.95-8.48l-6.17-9.89C667.05,199.51,662.74,197.53,659.11,199.44Zm-30.91-.1-1.3-.77c-3.52-2.11-7.93-.37-10.19,2.57l-7.12,10.15a52.38,52.38,0,0,0,15.75,9l5.41-10.78C632.27,206.15,631.71,201.45,628.2,199.34Zm16.3,4.09H643c-4.11,0-7,3.75-7.43,7.42l-.86,11.89a49.75,49.75,0,0,0,18.08-.16l-.86-11.73C651.49,207.18,648.6,203.43,644.5,203.43Z" transform="translate(-393.18 -51.87)"/><circle class="cls-11" cx="336.62" cy="159.16" r="39.99"/><path class="cls-5" d="M729.79,227.84A16.81,16.81,0,1,1,746.6,211,16.83,16.83,0,0,1,729.79,227.84Z" transform="translate(-393.18 -51.87)"/><path class="cls-12" d="M729.79,195.72A15.31,15.31,0,1,1,714.49,211a15.32,15.32,0,0,1,15.3-15.31m0-3A18.31,18.31,0,1,0,748.1,211a18.33,18.33,0,0,0-18.31-18.31Z" transform="translate(-393.18 -51.87)"/><path class="cls-13" d="M542.9,272.51A47.12,47.12,0,1,0,539.49,206,47.12,47.12,0,0,0,542.9,272.51Z" transform="translate(-393.18 -51.87)"/><path class="cls-5" d="M595.62,253.48a15.2,15.2,0,1,1,11.29-5A15.14,15.14,0,0,1,595.62,253.48Z" transform="translate(-393.18 -51.87)"/><path class="cls-14" d="M595.63,223.58a14.7,14.7,0,1,1-10.91,4.85,14.63,14.63,0,0,1,10.91-4.85m0-1h0a15.71,15.71,0,1,0,10.52,4,15.73,15.73,0,0,0-10.52-4Z" transform="translate(-393.18 -51.87)"/></svg>