<?xml version="1.0" encoding="UTF-8" standalone="no"?>
<!-- Created with Inkscape (https://www.inkscape.org/) -->
<!-- ClipArt by Arvin61r58 (https://openclipart.org/user-detail/Arvin61r58) -->
<svg
   xmlns:dc="http://purl.org/dc/elements/1.1/"
   xmlns:cc="http://creativecommons.org/ns#"
   xmlns:rdf="http://www.w3.org/1999/02/22-rdf-syntax-ns#"
   xmlns:svg="http://www.w3.org/2000/svg"
   xmlns="http://www.w3.org/2000/svg"
   xmlns:xlink="http://www.w3.org/1999/xlink"
   id="svg857"
   version="1.1"
   viewBox="0 0 254.54403 170.34035"
   height="643.80603"
   width="962.05621">
  <title
     id="title3959">BOOM</title>
  <defs
     id="defs851">
    <linearGradient
       id="linearGradient1621">
      <stop
         stop-color="#ca966b"
         offset="0"
         id="stop1591" />
      <stop
         stop-color="#b79669"
         offset="0.071429"
         id="stop1593" />
      <stop
         stop-color="#b4946b"
         offset="0.142857"
         id="stop1595" />
      <stop
         stop-color="#cb9949"
         offset="0.214286"
         id="stop1597" />
      <stop
         stop-color="#bda150"
         offset="0.285714"
         id="stop1599" />
      <stop
         stop-color="#cba264"
         offset="0.357143"
         id="stop1601" />
      <stop
         stop-color="#e1b56b"
         offset="0.428571"
         id="stop1603" />
      <stop
         stop-color="#cbab5e"
         offset="0.5"
         id="stop1605" />
      <stop
         stop-color="#d2ae65"
         offset="0.571429"
         id="stop1607" />
      <stop
         stop-color="#d4994e"
         offset="0.642857"
         id="stop1609" />
      <stop
         stop-color="#e4a253"
         offset="0.714286"
         id="stop1611" />
      <stop
         stop-color="#ddb261"
         offset="0.785714"
         id="stop1613" />
      <stop
         stop-color="#cba97e"
         offset="0.857143"
         id="stop1615" />
      <stop
         stop-color="#cfa76a"
         offset="0.928571"
         id="stop1617" />
      <stop
         stop-color="#e39b5a"
         offset="1"
         id="stop1619" />
    </linearGradient>
    <linearGradient
       gradientTransform="translate(-56.268376,-121.51885)"
       gradientUnits="userSpaceOnUse"
       y2="37.696777"
       x2="237.99158"
       y1="37.696777"
       x1="84.771339"
       id="linearGradient1655"
       xlink:href="#linearGradient1621" />
    <filter
       height="1"
       y="0"
       width="1"
       x="0"
       id="filter1665"
       style="color-interpolation-filters:sRGB">
      <feTurbulence
         id="feTurbulence1657"
         baseFrequency="0.23000000000000001"
         type="turbulence"
         seed="0"
         numOctaves="3" />
      <feGaussianBlur
         id="feGaussianBlur1659"
         result="result91"
         stdDeviation="0.59999999999999998" />
      <feDisplacementMap
         id="feDisplacementMap1661"
         in2="result91"
         result="result1"
         in="SourceGraphic"
         xChannelSelector="R"
         yChannelSelector="G"
         scale="40" />
      <feComposite
         id="feComposite1663"
         operator="atop"
         in2="SourceGraphic"
         in="result1" />
    </filter>
  </defs>
  <metadata
     id="metadata854">
    <rdf:RDF>
      <cc:Work
         rdf:about="">
        <dc:format>image/svg+xml</dc:format>
        <dc:type
           rdf:resource="http://purl.org/dc/dcmitype/StillImage" />
        <dc:title>BOOM</dc:title>
        <cc:license
           rdf:resource="http://creativecommons.org/publicdomain/zero/1.0/" />
        <dc:creator>
          <cc:Agent>
            <dc:title>Arvin61r58</dc:title>
          </cc:Agent>
        </dc:creator>
        <dc:publisher>
          <cc:Agent>
            <dc:title>Openclipart.org</dc:title>
          </cc:Agent>
        </dc:publisher>
        <dc:identifier>https://openclipart.org/</dc:identifier>
        <dc:source>https://openclipart.org/user-detail/Arvin61r58</dc:source>
        <dc:description>BOOM typography, word art</dc:description>
        <dc:subject>
          <rdf:Bag>
            <rdf:li>boom</rdf:li>
            <rdf:li>explode</rdf:li>
          </rdf:Bag>
        </dc:subject>
      </cc:Work>
      <cc:License
         rdf:about="http://creativecommons.org/publicdomain/zero/1.0/">
        <cc:permits
           rdf:resource="http://creativecommons.org/ns#Reproduction" />
        <cc:permits
           rdf:resource="http://creativecommons.org/ns#Distribution" />
        <cc:permits
           rdf:resource="http://creativecommons.org/ns#DerivativeWorks" />
      </cc:License>
    </rdf:RDF>
  </metadata>
  <g
     transform="translate(22.272014,-63.329829)"
     id="layer1">
    <g
       id="g3955">
      <title
         id="title3957">BOOM  --  by Arvin61r58</title>
      <g
         transform="matrix(1,0,0,0.86964981,14.184351,58.825351)"
         id="g1499"
         style="stroke-width:1.07232845">
        <path
           d="m 216.76466,127.02357 c -0.0564,0.17417 -44.76417,10.23215 -44.87755,10.38921 -0.11339,0.15707 22.2784,26.18534 22.11572,26.31459 -0.1626,0.12925 -50.57003,-12.10341 -50.77082,-12.01079 -0.20078,0.0926 -16.26365,31.47696 -16.48891,31.52665 -0.22526,0.0497 -33.957818,-9.23608 -34.192198,-9.23272 -0.23439,0.003 -32.738977,25.56339 -32.966511,25.52021 -0.227533,-0.0432 -13.366498,-34.26733 -13.571675,-34.35413 -0.205177,-0.0868 -48.1217327,11.52312 -48.2905734,11.39862 -0.1688382,-0.12449 13.8783004,-36.70797 13.7573084,-36.86168 -0.120995,-0.15371 -32.489888,-7.00704 -32.554792,-7.17947 -0.06491,-0.17244 19.2839854,-27.9105 19.2795955,-28.08992 -0.0044,-0.17942 -33.3940525,-11.653241 -33.3376315,-11.827421 0.05642,-0.17417 44.7641977,-23.64084 44.8775877,-23.7979 0.113384,-0.15707 12.5367943,-39.594035 12.6994233,-39.723282 0.16263,-0.129247 20.362773,13.380432 20.56356,13.287809 0.200783,-0.09262 23.431477,-34.669511 23.656736,-34.719193 0.225262,-0.04969 20.13415,42.438549 20.368534,42.435185 0.234384,-0.0031 34.786926,-43.441645 35.014456,-43.398454 0.22753,0.0432 13.3665,34.267325 13.57168,34.35412 0.20517,0.0868 34.29806,-8.330561 34.46689,-8.206072 0.16884,0.124493 -0.0546,33.515437 0.0664,33.669137 0.12099,0.1537 45.28959,8.92256 45.35447,9.09501 0.0649,0.17243 -32.08367,25.994961 -32.07928,26.174381 0.004,0.17943 33.39406,25.06193 33.3376,25.23611 z"
           id="path2994"
           style="fill:#f30000;stroke:none;stroke-width:0.27381814" />
        <path
           d="m 201.18433,101.14411 c -0.0443,-0.1334 -51.34606,-18.287751 -51.43503,-18.408051 -0.089,-0.12029 34.42092,-30.506206 34.29332,-30.605196 -0.12764,-0.099 -56.62302,19.720946 -56.78058,19.650006 -0.15757,-0.071 -12.763,-24.108026 -12.93978,-24.14608 -0.17677,-0.03803 -26.648611,7.073863 -26.832542,7.071281 C 87.305786,54.70377 61.79761,35.127219 61.61905,35.160297 61.440491,35.193387 51.129609,61.405442 50.968596,61.471923 50.807581,61.538393 -1.2104156,42.195428 -1.3429126,42.290778 c -0.132499,0.09535 25.3062646,38.565431 25.2113096,38.683151 -0.09495,0.11772 -32.869263,-4.40254 -32.9201966,-4.27046 -0.050936,0.13206 22.5058506,31.145661 22.5024076,31.283091 -0.0036,0.13741 -15.6080385,8.92514 -15.5637587,9.05854 0.044275,0.1334 24.5308297,18.10638 24.6198087,18.22668 0.08898,0.12029 1.549601,43.65887 1.677222,43.75787 0.127628,0.099 24.268541,-23.58204 24.426111,-23.5111 0.157566,0.0709 28.986147,26.55318 29.162919,26.59123 0.176776,0.038 5.202252,-32.50344 5.386186,-32.50087 12.932426,8.38568 25.067224,22.84207 37.667474,31.06266 0.16101,-0.0665 14.01352,-29.82315 14.14601,-29.91849 0.1325,-0.0953 25.30054,27.77394 25.39549,27.65622 0.095,-0.11772 -10.99842,-50.50777 -10.94748,-50.63983 0.0509,-0.13207 9.38131,-17.61076 9.38476,-17.74819 0.004,-0.13742 42.42326,-8.74377 42.37898,-8.87717 z"
           id="path2989"
           style="fill:#f37100;stroke:none;stroke-width:0.27381814" />
        <path
           d="m 60.442051,146.64711 c -0.123852,-0.0481 -20.649063,9.45325 -20.750981,9.38426 -0.101924,-0.069 9.544422,-21.45813 9.471388,-21.54332 -0.07304,-0.0852 -33.110624,2.10842 -33.149806,2.01284 -0.03917,-0.0956 15.572056,-23.41863 15.569401,-23.51808 -0.0026,-0.0995 -30.96999734,-12.09006 -30.93593534,-12.18661 0.03407,-0.0965 37.83368634,-7.473631 37.90213534,-7.560691 0.06844,-0.0871 -9.086822,-20.41923 -8.988654,-20.49087 0.09817,-0.0717 28.946936,5.88889 29.068138,5.83756 0.121212,-0.0513 5.525567,-13.78626 5.66155,-13.8138 0.135973,-0.0276 22.009472,8.18267 22.150963,8.18081 0.141488,-0.002 39.8217,-22.098269 39.95903,-22.074331 0.13737,0.02396 -11.98973,26.922901 -11.86586,26.971011 0.12384,0.0481 31.22281,5.31968 31.32471,5.38868 0.10194,0.069 -10.55145,8.64042 -10.47841,8.72562 0.0731,0.0852 27.33946,9.942551 27.37865,10.038141 0.0392,0.0956 -33.46591,8.54341 -33.46328,8.64286 0.003,0.0995 34.25693,14.76095 34.22286,14.8575 -0.0341,0.0966 -27.02228,5.67173 -27.09074,5.7588 -0.0684,0.0871 6.56928,14.5535 6.4711,14.62515 -0.0982,0.0716 -26.42937,-0.0232 -26.55058,0.0281 -0.12121,0.0513 -7.03608,19.21748 -7.17209,19.245 -0.13597,0.0275 -20.498913,-13.61387 -20.640401,-13.61201 -0.141489,0.002 -21.925451,23.90015 -22.062803,23.87627 -0.137351,-0.0239 -5.906522,-28.72478 -6.030385,-28.77289 z"
           id="path2992"
           style="fill:#f3f300;stroke:none;stroke-width:0.27381814" />
      </g>
      <g
         id="g1669"
         transform="translate(-0.113084,234.43876)">
        <path
           style="fill:url(#linearGradient1655);fill-opacity:1;fill-rule:evenodd;stroke:none;stroke-width:4.45962286;filter:url(#filter1665)"
           d="m 82.494614,-116.55822 c -4.60339,0.6615 -9.20866,3.73343 -12.82374,9.00725 -4.35563,6.05432 -6.58946,14.785746 -6.31914,23.155451 0.0559,1.73123 0.15971,3.457598 0.33292,5.185237 1.0092,10.1244 6.26495,19.750413 12.6552,24.261944 7.2187,5.210218 15.57273,4.374048 20.917325,-4.418379 4.043841,-6.951178 5.702441,-17.741475 5.022201,-28.201538 -0.84511,-12.965715 -6.101781,-24.255685 -12.732776,-27.776695 -2.25998,-1.1089 -4.65668,-1.51242 -7.05199,-1.21327 0,0 0,0 0,0 m 39.195026,-0.64595 c -4.27904,-0.30896 -8.54905,1.99686 -11.88178,7.12625 -3.99723,6.19901 -6.00174,16.209662 -5.69802,26.151448 0.0628,2.053973 0.16923,4.09962 0.33903,6.140737 0.98599,11.871781 5.81855,22.081612 11.64616,25.705711 6.58422,3.84257 14.2201,1.052122 19.14949,-8.459975 3.75352,-7.062058 5.33503,-17.063352 4.75157,-26.543553 -0.72774,-11.836638 -5.57915,-22.938668 -11.74573,-27.482678 -2.10213,-1.53933 -4.33227,-2.43687 -6.56072,-2.63794 0,0 0,0 0,0 m -77.873826,10.26268 c -5.053847,1.63795 -10.158641,3.53525 -15.312852,5.47228 0,11.152922 0,22.305847 0,33.458774 7.48875,2.74761 14.848912,5.361737 22.073222,7.488865 3.94786,1.059341 7.99202,-0.02103 10.24428,-3.981103 2.28902,-4.27799 2.15043,-11.300846 -0.38101,-16.113073 -1.32509,-2.435837 -3.20683,-4.047119 -5.23241,-4.91788 1.12364,-0.539506 2.1744,-1.398353 2.96148,-2.644769 2.7367,-4.214421 2.74296,-11.064094 0.60158,-15.516214 -2.12678,-4.21991 -6.1272,-5.63376 -9.94872,-4.68314 -1.66305,0.44023 -3.33178,0.9225 -5.00557,1.43618 0,2e-5 0,5e-5 0,8e-5 m 101.790406,-5.41981 c -1.4835,18.850564 -2.95147,38.196747 -4.40469,58.005324 3.5301,-0.741922 7.03597,-1.561381 10.51849,-2.457672 0.3712,-7.281435 0.74441,-14.500958 1.1197,-21.657649 0.10568,-2.385844 0.21161,-4.765445 0.31773,-7.138773 1.78298,9.280837 3.54903,18.228784 5.29805,26.827743 2.24317,-0.725047 4.47773,-1.482016 6.70397,-2.270708 1.55278,-8.620613 3.11414,-16.854439 4.68424,-24.68655 0.62337,7.541877 1.2417,14.932396 1.85495,22.169692 3.3574,-1.408654 6.69861,-2.889071 10.02455,-4.440543 -1.63008,-10.853783 -3.28807,-22.636651 -4.97423,-35.321054 -3.62883,-1.28904 -7.27648,-2.5242 -10.94365,-3.7035 -1.41854,7.037313 -2.83015,14.393578 -4.23493,22.057783 -1.54096,-7.934691 -3.09542,-16.155833 -4.66329,-24.652163 -3.74416,-0.97595 -7.51091,-1.88725 -11.30088,-2.73193 M 44.096344,-96.35062 c 0.68191,-0.122627 1.35555,-0.186068 1.9961,0.0043 1.35369,0.423202 1.94399,2.28956 1.54266,3.977258 -0.40537,1.681689 -1.85701,2.41169 -3.15259,2.466774 -0.78796,0.05342 -1.57725,0.10772 -2.367857,0.162907 -0.02198,-2.083313 -0.04394,-4.166625 -0.06592,-6.249938 0.673297,-0.056 1.364717,-0.2374 2.047607,-0.361293 0,5e-6 0,9e-6 0,1.5e-5 m 38.97183,-0.188431 c 0.18406,-0.01139 0.36986,-0.0083 0.55649,0.0099 3.74105,0.384686 6.11918,7.128996 5.96536,13.394333 -0.14594,5.92035 -2.4626,11.867831 -6.02897,11.40523 -0.74609,-0.09912 -1.49835,-0.288892 -2.21312,-0.758018 -3.78306,-2.440919 -5.16652,-10.22217 -4.20586,-16.102598 0.72152,-4.479424 3.15679,-7.774015 5.9261,-7.94891 0,2.7e-5 0,5.5e-5 0,8.1e-5 m 39.152726,-0.0053 c 0.1702,0.0023 0.34202,0.01947 0.51462,0.05224 3.4613,0.659863 5.65149,7.469007 5.49929,13.655988 -0.14358,5.866842 -2.28226,11.98318 -5.55841,11.844817 -0.68486,-0.03309 -1.3754,-0.160633 -2.03152,-0.585584 -3.4729,-2.275251 -4.75869,-10.592235 -3.88654,-16.921269 0.65763,-4.76001 2.90279,-8.0775 5.46256,-8.046279 0,2.8e-5 0,5.6e-5 0,8.5e-5 m -80.009826,15.946163 c 1.64119,0.203273 3.31014,0.04319 4.91745,0.603105 1.45236,0.522209 2.29852,2.336626 2.24996,4.109351 -0.0604,2.194037 -1.74506,3.402969 -3.44597,3.077426 -1.21197,-0.2344 -2.42718,-0.414938 -3.6459,-0.627789 -0.0252,-2.387365 -0.0504,-4.774729 -0.0755,-7.162093"
           id="path5" />
        <path
           id="path1647"
           d="m 82.474795,-116.5565 c -4.60339,0.66149 -9.20866,3.73343 -12.82374,9.00725 -4.35563,6.05432 -6.58946,14.785747 -6.31914,23.155452 0.0559,1.73123 0.15971,3.457598 0.33292,5.185237 1.0092,10.1244 6.26495,19.750413 12.6552,24.261944 7.2187,5.210218 15.57273,4.374048 20.91733,-4.418379 4.043845,-6.951178 5.702445,-17.741475 5.022205,-28.201538 -0.84511,-12.965716 -6.101785,-24.255686 -12.732785,-27.776696 -2.25998,-1.1089 -4.65668,-1.51243 -7.05199,-1.21327 0,0 0,0 0,0 m 39.195035,-0.64596 c -4.27904,-0.30896 -8.54905,1.99687 -11.88178,7.12626 -3.99723,6.19901 -6.00174,16.209663 -5.69802,26.151449 0.0628,2.053973 0.16923,4.09962 0.33903,6.140737 0.98599,11.871781 5.81854,22.081612 11.64616,25.705711 6.58421,3.84257 14.2201,1.052122 19.14949,-8.459975 3.75352,-7.062058 5.33503,-17.063352 4.75157,-26.543553 -0.72774,-11.836638 -5.57915,-22.938669 -11.74573,-27.482689 -2.10213,-1.53933 -4.33227,-2.43686 -6.56072,-2.63794 0,0 0,0 0,0 m -77.873835,10.26269 c -5.05385,1.63795 -10.15864,3.53525 -15.312852,5.47228 0,11.152923 0,22.305848 0,33.458775 7.488752,2.74761 14.848912,5.361737 22.073222,7.488865 3.94786,1.059341 7.99202,-0.02103 10.24428,-3.981103 2.28902,-4.27799 2.15043,-11.300846 -0.38101,-16.113073 -1.32509,-2.435837 -3.20683,-4.047119 -5.23241,-4.91788 1.12364,-0.539506 2.1744,-1.398353 2.96148,-2.644769 2.7367,-4.214421 2.74296,-11.064094 0.60158,-15.516215 -2.12678,-4.21992 -6.1272,-5.63376 -9.94872,-4.68314 -1.66305,0.44023 -3.33178,0.9225 -5.00557,1.43617 0,3e-5 0,6e-5 0,9e-5 m 101.790415,-5.41981 c -1.4835,18.850565 -2.95147,38.196748 -4.40469,58.005325 3.5301,-0.741922 7.03597,-1.561381 10.51849,-2.457672 0.37119,-7.281435 0.74441,-14.500958 1.1197,-21.657649 0.10568,-2.385844 0.21161,-4.765445 0.31773,-7.138773 1.78297,9.280837 3.54903,18.228784 5.29805,26.827743 2.24317,-0.725047 4.47773,-1.482016 6.70397,-2.270708 1.55278,-8.620613 3.11414,-16.854439 4.68423,-24.68655 0.62338,7.541877 1.2417,14.932396 1.85495,22.169692 3.3574,-1.408654 6.69861,-2.889071 10.02455,-4.440543 -1.63008,-10.853783 -3.28807,-22.636651 -4.97423,-35.321055 -3.62883,-1.28905 -7.27648,-2.5242 -10.94365,-3.70351 -1.41854,7.037321 -2.83015,14.393589 -4.23493,22.057794 -1.54096,-7.934691 -3.09542,-16.155834 -4.66329,-24.652164 -3.74416,-0.97596 -7.51091,-1.88725 -11.30088,-2.73193 M 44.076525,-96.348899 c 0.68191,-0.122627 1.35555,-0.186068 1.9961,0.0043 1.35369,0.423202 1.94399,2.28956 1.54266,3.977258 -0.40537,1.681689 -1.85701,2.41169 -3.15259,2.466774 -0.78796,0.05342 -1.57725,0.10772 -2.36786,0.162907 -0.022,-2.083313 -0.0439,-4.166625 -0.0659,-6.249938 0.6733,-0.056 1.36472,-0.2374 2.04761,-0.361293 0,5e-6 0,9e-6 0,1.5e-5 m 38.97183,-0.188431 c 0.18406,-0.01139 0.36986,-0.0083 0.55649,0.0099 3.74105,0.384686 6.11918,7.128996 5.96536,13.394333 -0.14594,5.92035 -2.4626,11.867831 -6.02897,11.40523 -0.74609,-0.09912 -1.49835,-0.288892 -2.21312,-0.758018 -3.78306,-2.440919 -5.16652,-10.22217 -4.20586,-16.102598 0.72152,-4.479424 3.15679,-7.774015 5.9261,-7.94891 0,2.7e-5 0,5.5e-5 0,8.1e-5 m 39.152735,-0.0053 c 0.1702,0.0023 0.34202,0.01947 0.51462,0.05224 3.4613,0.659863 5.65149,7.469007 5.49929,13.655988 -0.14358,5.866842 -2.28226,11.98318 -5.55841,11.844817 -0.68486,-0.03309 -1.3754,-0.160633 -2.03152,-0.585584 -3.4729,-2.275251 -4.75869,-10.592235 -3.88654,-16.921269 0.65763,-4.76001 2.90279,-8.0775 5.46256,-8.046279 0,2.8e-5 0,5.6e-5 0,8.5e-5 m -80.009855,15.946163 c 1.64119,0.203273 3.31014,0.04319 4.91745,0.603105 1.45236,0.522209 2.29852,2.336626 2.24996,4.109351 -0.0604,2.194037 -1.74506,3.402969 -3.44597,3.077426 -1.21197,-0.2344 -2.42718,-0.414938 -3.6459,-0.627789 -0.0252,-2.387365 -0.0504,-4.774729 -0.0755,-7.162093"
           style="fill:none;fill-opacity:1;fill-rule:evenodd;stroke:#410000;stroke-width:0.79374999" />
      </g>
    </g>
  </g>
</svg>
